<?xml version="1.0" encoding="UTF-8" standalone="no"?>
<svg
   id="svg159634"
   viewBox="0 0 546 262"
   height="262"
   width="546"
   version="1.1"
   sodipodi:docname="Nifty.svg"
   inkscape:version="1.2.2 (732a01da63, 2022-12-09)"
   xmlns:inkscape="http://www.inkscape.org/namespaces/inkscape"
   xmlns:sodipodi="http://sodipodi.sourceforge.net/DTD/sodipodi-0.dtd"
   xmlns:xlink="http://www.w3.org/1999/xlink"
   xmlns="http://www.w3.org/2000/svg"
   xmlns:svg="http://www.w3.org/2000/svg"
   xmlns:rdf="http://www.w3.org/1999/02/22-rdf-syntax-ns#"
   xmlns:cc="http://creativecommons.org/ns#"
   xmlns:dc="http://purl.org/dc/elements/1.1/">
  <sodipodi:namedview
     id="namedview24"
     pagecolor="#ffffff"
     bordercolor="#000000"
     borderopacity="0.25"
     inkscape:showpageshadow="2"
     inkscape:pageopacity="0.0"
     inkscape:pagecheckerboard="0"
     inkscape:deskcolor="#d1d1d1"
     showgrid="false"
     inkscape:zoom="0.74025241"
     inkscape:cx="337.72264"
     inkscape:cy="364.06501"
     inkscape:window-width="1920"
     inkscape:window-height="991"
     inkscape:window-x="-9"
     inkscape:window-y="-9"
     inkscape:window-maximized="1"
     inkscape:current-layer="svg159634" />
  <metadata
     id="metadata159640">
    <rdf:rdf>
      <cc:work
         rdf:about="">
        <dc:format>image/svg+xml</dc:format>
        <dc:type
           rdf:resource="http://purl.org/dc/dcmitype/StillImage" />
      </cc:work>
    </rdf:rdf>
  </metadata>
  <defs
     id="defs159638" />
  <linearGradient
     spreadMethod="pad"
     y2="0.30000001"
     x2="-0.1"
     y1="1.2"
     x1="0.30000001"
     id="3d_gradient2-logo-9ad7d5c1-2b65-4ba7-bee0-30edba4b81b9">
    <stop
       id="stop159615"
       stop-opacity="1"
       stop-color="#ffffff"
       offset="0%" />
    <stop
       id="stop159617"
       stop-opacity="1"
       stop-color="#000000"
       offset="100%" />
  </linearGradient>
  <linearGradient
     gradientTransform="rotate(-30)"
     spreadMethod="pad"
     y2="0.30000001"
     x2="-0.1"
     y1="1.2"
     x1="0.30000001"
     id="3d_gradient3-logo-9ad7d5c1-2b65-4ba7-bee0-30edba4b81b9">
    <stop
       id="stop159620"
       stop-opacity="1"
       stop-color="#ffffff"
       offset="0%" />
    <stop
       id="stop159622"
       stop-opacity="1"
       stop-color="#cccccc"
       offset="50%" />
    <stop
       id="stop159624"
       stop-opacity="1"
       stop-color="#000000"
       offset="100%" />
  </linearGradient>
  <g
     id="logo-group"
     transform="translate(-238,-252)">
    <image
       xlink:href=""
       id="container"
       x="272"
       y="144"
       width="480"
       height="480"
       style="display:none" />
    <g
       id="logo-center">
      <image
         xlink:href=""
         id="icon_container"
         style="display:none"
         x="0"
         y="0" />
      <g
         id="slogan"
         style="font-style:normal;font-weight:400;font-size:32px;line-height:1;font-family:Montserrat;font-variant-ligatures:none;text-align:center;text-anchor:middle" />
      <g
         id="title"
         style="font-style:normal;font-weight:500;font-size:72px;line-height:1;font-family:'Raleway Medium Alt1';font-variant-ligatures:none;text-align:center;text-anchor:middle">
        <path
           id="path159643"
           style="font-style:normal;font-weight:500;font-size:72px;line-height:1;font-family:'Raleway Medium Alt1';font-variant-ligatures:none;text-align:center;text-anchor:middle"
           d="m 437.47156,0 h 6.48 v -28.728 l -6.48,-8.424 z m 36.72,-51.048 v 39.744 l -31.68,-39.816 h -5.04 v 3.888 l 6.48,8.208 31.248,39.024 h 5.472 v -51.048 z"
           stroke-width="0"
           stroke-linejoin="miter"
           stroke-miterlimit="2"
           fill="#cbc3bb"
           stroke="#cbc3bb"
           transform="matrix(3.38,0,0,3.38,-1226.7221,446.6652)" />
        <path
           id="path159645"
           style="font-style:normal;font-weight:500;font-size:72px;line-height:1;font-family:'Raleway Medium Alt1';font-variant-ligatures:none;text-align:center;text-anchor:middle"
           d="m 491.86981,0 h 6.336 v -37.584 h -6.336 z m 0,-44.64 h 6.336 v -7.92 h -6.336 z"
           stroke-width="0"
           stroke-linejoin="miter"
           stroke-miterlimit="2"
           fill="#beb5ba"
           stroke="#beb5ba"
           transform="matrix(3.38,0,0,3.38,-1226.7221,446.6652)" />
        <path
           id="path159647"
           style="font-style:normal;font-weight:500;font-size:72px;line-height:1;font-family:'Raleway Medium Alt1';font-variant-ligatures:none;text-align:center;text-anchor:middle"
           d="m 510.47956,0 h 6.336 v -32.616 h 10.008 v -4.968 h -10.008 v -1.008 c 0,-3.024 0.504,-5.328 1.656,-6.912 1.08,-1.584 2.664,-2.376 4.824,-2.376 0.936,0 1.872,0.144 2.88,0.432 1.008,0.288 1.8,0.72 2.52,1.152 l 1.584,-4.68 c -1.152,-0.72 -2.448,-1.224 -3.888,-1.656 -1.44,-0.432 -2.952,-0.648 -4.392,-0.648 -3.6,0 -6.408,1.368 -8.424,3.96 -2.088,2.664 -3.096,6.336 -3.096,10.944 v 0.792 h -5.112 v 4.968 h 5.112 z"
           stroke-width="0"
           stroke-linejoin="miter"
           stroke-miterlimit="2"
           fill="#b0a7b9"
           stroke="#b0a7b9"
           transform="matrix(3.38,0,0,3.38,-1226.7221,446.6652)" />
        <path
           id="path159649"
           style="font-style:normal;font-weight:500;font-size:72px;line-height:1;font-family:'Raleway Medium Alt1';font-variant-ligatures:none;text-align:center;text-anchor:middle"
           d="m 552.65356,-1.872 -1.512,-5.04 c -0.432,0.288 -1.152,0.576 -2.16,1.008 -1.008,0.432 -2.16,0.576 -3.384,0.576 -1.152,0 -2.088,-0.288 -2.88,-0.936 -0.864,-0.576 -1.296,-1.584 -1.368,-3.024 v -23.328 h 8.424 v -4.968 h -8.424 v -12.528 h -6.336 v 12.528 h -5.112 v 4.968 h 5.112 v 25.272 c 0,2.736 0.792,4.68 2.52,5.976 1.656,1.296 3.672,1.872 5.976,1.872 1.008,0 1.944,-0.072 2.88,-0.216 0.936,-0.144 1.8,-0.36 2.592,-0.648 0.792,-0.288 1.512,-0.504 2.16,-0.792 0.576,-0.288 1.08,-0.504 1.512,-0.72 z"
           stroke-width="0"
           stroke-linejoin="miter"
           stroke-miterlimit="2"
           fill="#968cb7"
           stroke="#968cb7"
           transform="matrix(3.38,0,0,3.38,-1226.7221,446.6652)" />
        <path
           id="path159651"
           style="font-style:normal;font-weight:500;font-size:72px;line-height:1;font-family:'Raleway Medium Alt1';font-variant-ligatures:none;text-align:center;text-anchor:middle"
           d="m 560.25406,10.224 v 5.616 c 0.648,0.144 1.224,0.288 1.656,0.288 0.432,0.072 0.936,0.072 1.368,0.072 2.736,0 4.824,-0.576 6.408,-1.872 1.584,-1.296 2.664,-2.736 3.384,-4.464 l 18.288,-47.448 h -6.048 l -11.664,31.896 -12.816,-31.896 h -6.552 L 570.19006,0 c -0.864,2.232 -1.584,4.032 -2.16,5.4 -0.576,1.368 -1.152,2.448 -1.584,3.168 -0.432,0.792 -0.936,1.296 -1.368,1.584 -0.432,0.288 -0.936,0.36 -1.512,0.36 -0.36,0 -0.864,0 -1.44,-0.072 -0.648,0 -1.296,-0.072 -1.872,-0.216 z"
           stroke-width="0"
           stroke-linejoin="miter"
           stroke-miterlimit="2"
           fill="#6f63b3"
           stroke="#6f63b3"
           transform="matrix(3.38,0,0,3.38,-1226.7221,446.6652)" />
      </g>
      <image
         xlink:href=""
         id="icon"
         style="display:none"
         x="0"
         y="0" />
    </g>
  </g>
</svg>
